HIERARCHY
ROOT reference
{
  OFFSET 0 0 0
  CHANNELS 6 Xposition Yposition Zposition Zrotation Xrotation Yrotation
  JOINT Hips
  {
    OFFSET -30.589 89.712 166.535
    CHANNELS 6 Xposition Yposition Zposition Zrotation Xrotation Yrotation
    JOINT Spine
    {
      OFFSET 0 8.12958 0
      CHANNELS 6 Xposition Yposition Zposition Zrotation Xrotation Yrotation
      JOINT Spine1
      {
        OFFSET 0 26.3907 0
        CHANNELS 6 Xposition Yposition Zposition Zrotation Xrotation Yrotation
        JOINT Neck
        {
          OFFSET 0 26.2823 2.3893
          CHANNELS 6 Xposition Yposition Zposition Zrotation Xrotation Yrotation
          JOINT Head
          {
            OFFSET 0 13.8798 -1.98282
            CHANNELS 6 Xposition Yposition Zposition Zrotation Xrotation Yrotation
            End Site
            {
              OFFSET 0 24.7853 0
            }
          }
        }
        JOINT LeftShoulder
        {
          OFFSET 3.97789 23.5745 -0.27352
          CHANNELS 6 Xposition Yposition Zposition Zrotation Xrotation Yrotation
          JOINT LeftArm
          {
            OFFSET 13.7626 0 0
            CHANNELS 6 Xposition Yposition Zposition Zrotation Xrotation Yrotation
            JOINT LeftForeArm
            {
              OFFSET 26.1014 0 0
              CHANNELS 6 Xposition Yposition Zposition Zrotation Xrotation Yrotation
              JOINT LeftHand
              {
                OFFSET 29.9599 0 0
                CHANNELS 6 Xposition Yposition Zposition Zrotation Xrotation Yrotation
                End Site
                {
                  OFFSET 14.8712 0 0
                }
              }
            }
          }
        }
        JOINT RightShoulder
        {
          OFFSET -3.9517 23.5745 -0.27352
          CHANNELS 6 Xposition Yposition Zposition Zrotation Xrotation Yrotation
          JOINT RightArm
          {
            OFFSET -13.7626 0 0
            CHANNELS 6 Xposition Yposition Zposition Zrotation Xrotation Yrotation
            JOINT RightForeArm
            {
              OFFSET -26.1014 0 0
              CHANNELS 6 Xposition Yposition Zposition Zrotation Xrotation Yrotation
              JOINT RightHand
              {
                OFFSET -29.9599 0 0
                CHANNELS 6 Xposition Yposition Zposition Zrotation Xrotation Yrotation
                End Site
                {
                  OFFSET -14.8712 0 0
                }
              }
            }
          }
        }
      }
    }
    JOINT LeftUpLeg
    {
      OFFSET 9.91412 0 0
      CHANNELS 6 Xposition Yposition Zposition Zrotation Xrotation Yrotation
      JOINT LeftLeg
      {
        OFFSET 0 -41.4279 0
        CHANNELS 6 Xposition Yposition Zposition Zrotation Xrotation Yrotation
        JOINT LeftFoot
        {
          OFFSET 0 -41.0254 0
          CHANNELS 6 Xposition Yposition Zposition Zrotation Xrotation Yrotation
          JOINT LeftToeBase
          {
            OFFSET 0 -6.44418 14.8712
            CHANNELS 6 Xposition Yposition Zposition Zrotation Xrotation Yrotation
            End Site
            {
              OFFSET 0 0 3.96565
            }
          }
        }
      }
    }
    JOINT RightUpLeg
    {
      OFFSET -9.91412 0 0
      CHANNELS 6 Xposition Yposition Zposition Zrotation Xrotation Yrotation
      JOINT RightLeg
      {
        OFFSET 0 -41.4279 0
        CHANNELS 6 Xposition Yposition Zposition Zrotation Xrotation Yrotation
        JOINT RightFoot
        {
          OFFSET 0 -41.0254 0
          CHANNELS 6 Xposition Yposition Zposition Zrotation Xrotation Yrotation
          JOINT RightToeBase
          {
            OFFSET 0 -6.44418 14.8712
            CHANNELS 6 Xposition Yposition Zposition Zrotation Xrotation Yrotation
            End Site
            {
              OFFSET 0 0 3.96565
            }
          }
        }
      }
    }
  }
}
MOTION
Frames:	10
Frame Time:	0.004
0 0 0 0 0 -0 -34.0618 85.0343 -178.411 -1.92073 10.9722 8.82461 0 8.12958 0 -4.38732 4.60274 -7.4902 0 26.3907 -2.84217e-014 12.2841 -5.82243 -7.03953 0 26.2823 2.3893 -3.99354 6.64142 -9.34403 1.42109e-014 13.8798 -1.98282 3.51534 -1.85551 -8.81564 3.97789 23.5745 -0.27352 19.6596 -7.2516 -5.04752 13.7626 0 0 5.36192 -0.002057 -11.1431 26.1014 0 0 39.4367 -50.9195 -64.3376 29.9599 0 -1.42109e-014 8.72481 -32.1758 -12.3764 -3.9517 23.5745 -0.27352 -2.29568 1.83926 4.44428 -13.7626 0 0 10.1531 -7.02504 16.3188 -26.1014 0 2.84217e-014 -16.0794 -59.3243 57.0276 -29.9599 0 1.06581e-014 -38.0901 -53.7079 -4.01815 9.91412 2.13163e-014 2.84217e-014 8.5471 -4.44885 4.53112 7.10543e-015 -41.4279 0 -3.03793 39.4662 7.03552 -1.42109e-014 -41.0254 0 -5.41369 1.62093 5.71214 0 -6.44418 14.8712 -3.18055e-015 0 3.18055e-015 -9.91412 1.42109e-014 0 -15.6304 -20.7906 -19.6558 0 -41.4279 0 6.36057 44.1989 3.44619 0 -41.0254 -2.84217e-014 7.47681 -5.60586 -12.9355 0 -6.44418 14.8712 -1.59028e-015 3.18055e-015 -0 
0 0 0 0 0 -0 -34.2048 85.011 -178.015 -1.8754 11.0828 8.66879 0 8.12958 0 -4.3121 4.56197 -7.48777 0 26.3907 -2.84217e-014 12.0721 -5.71 -7.05536 0 26.2823 2.3893 -4.39398 6.1993 -9.2282 0 13.8798 -1.98282 3.57018 -1.5916 -8.64113 3.97789 23.5745 -0.27352 19.8301 -7.61883 -4.51321 13.7626 2.84217e-014 -2.84217e-014 6.18575 -0.725952 -10.9966 26.1014 0 -2.84217e-014 39.0607 -51.0823 -63.5847 29.9599 -2.84217e-014 1.42109e-014 9.95347 -32.9738 -11.0485 -3.9517 23.5745 -0.27352 -2.03073 2.04939 4.68787 -13.7626 -2.84217e-014 0 9.81353 -6.8762 16.3572 -26.1014 0 -2.84217e-014 -18.1651 -59.1336 53.6426 -29.9599 0 1.42109e-014 -41.1197 -52.6223 -6.26969 9.91412 7.10543e-015 0 8.49033 -5.25401 4.91528 0 -41.4279 0 -3.01177 41.608 6.33076 7.10543e-015 -41.0254 0 -5.91785 1.22467 5.52336 0 -6.44418 14.8712 3.18055e-015 3.18055e-015 -0 -9.91412 -7.10543e-015 0 -15.6158 -20.55 -19.3378 1.42109e-014 -41.4279 2.84217e-014 6.20895 43.8381 3.95746 -1.42109e-014 -41.0254 0 7.71595 -5.19325 -13.7776 0 -6.44418 14.8712 -1.59028e-015 0 -0 
0 0 0 0 0 -0 -34.354 84.9634 -177.618 -1.83221 11.1872 8.51081 -3.55271e-015 8.12958 -5.68434e-014 -4.20093 4.58177 -7.43863 7.10543e-015 26.3907 -2.84217e-014 11.7691 -5.71492 -7.01729 7.10543e-015 26.2823 2.3893 -4.67227 6.10944 -9.15375 -1.42109e-014 13.8798 -1.98282 3.60239 -1.82443 -8.52158 3.97789 23.5745 -0.27352 20.1393 -8.45022 -3.75487 13.7626 2.84217e-014 0 6.75667 -1.28761 -11.3721 26.1014 0 0 38.1589 -50.8258 -63.4308 29.9599 0 1.42109e-014 12.2916 -33.2631 -9.09896 -3.9517 23.5745 -0.27352 -1.75348 2.30098 4.78441 -13.7626 0 2.84217e-014 9.54438 -6.87803 16.3885 -26.1014 -2.84217e-014 2.84217e-014 -19.5862 -58.6658 50.9711 -29.9599 0 0 -44.0992 -51.2024 -8.82768 9.91412 -7.10543e-015 -2.84217e-014 8.4629 -6.04981 5.20613 3.55271e-015 -41.4279 2.84217e-014 -3.17553 43.6666 5.09865 -7.10543e-015 -41.0254 0 -6.45945 0.761541 6.10786 0 -6.44418 14.8712 -6.36111e-015 -9.54166e-015 4.77083e-015 -9.91412 7.10543e-015 0 -15.5869 -20.2831 -18.9164 -1.42109e-014 -41.4279 0 6.16251 43.4563 3.96908 0 -41.0254 2.84217e-014 7.13481 -4.21614 -14.1074 0 -6.44418 14.8712 -3.18055e-015 6.36111e-015 -0 
0 0 0 0 0 -0 -34.5053 84.8919 -177.223 -1.77091 11.2527 8.30192 -3.55271e-015 8.12958 2.84217e-014 -4.10177 4.64853 -7.35846 -7.10543e-015 26.3907 -2.84217e-014 11.4693 -5.71732 -6.9504 0 26.2823 2.3893 -4.84669 5.85528 -8.93741 0 13.8798 -1.98282 3.39711 -1.87246 -8.29945 3.97789 23.5745 -0.27352 20.4701 -8.91711 -3.18259 13.7626 2.84217e-014 -2.84217e-014 7.25724 -1.72105 -11.4551 26.1014 -2.84217e-014 2.84217e-014 38.4251 -50.9347 -62.2828 29.9599 0 1.42109e-014 14.0014 -33.6324 -7.07253 -3.9517 23.5745 -0.27352 -1.56081 2.40226 4.91708 -13.7626 1.42109e-014 -2.84217e-014 9.34851 -6.9715 16.2781 -26.1014 2.84217e-014 0 -19.9247 -58.0002 49.47 -29.9599 0 0 -47.0188 -49.4808 -11.8356 9.91412 -7.10543e-015 0 8.42599 -6.78364 5.42251 0 -41.4279 0 -3.37763 45.7053 4.7485 0 -41.0254 0 -7.62815 0.412935 5.84821 0 -6.44418 14.8712 -3.18055e-015 0 1.59028e-015 -9.91412 1.42109e-014 0 -15.5392 -19.9844 -18.4459 0 -41.4279 2.84217e-014 6.08083 43.0324 4.21667 0 -41.0254 0 7.30231 -3.48397 -14.6778 0 -6.44418 14.8712 3.18055e-015 -3.18055e-015 -3.18055e-015 
0 0 0 0 0 -0 -34.6565 84.8003 -176.81 -1.71855 11.3067 8.10242 -7.10543e-015 8.12958 2.84217e-014 -3.98841 4.69513 -7.27727 0 26.3907 0 11.1584 -5.68943 -6.88465 0 26.2823 2.3893 -5.02361 5.5823 -8.75412 0 13.8798 -1.98282 3.18366 -1.9078 -8.11168 3.97789 23.5745 -0.27352 20.8956 -9.34796 -2.57012 13.7626 0 -2.84217e-014 7.49337 -2.00118 -11.6353 26.1014 2.84217e-014 2.84217e-014 39.2915 -51.1398 -60.7897 29.9599 0 1.42109e-014 15.7947 -33.8314 -4.63636 -3.9517 23.5745 -0.27352 -1.42428 2.45998 5.00601 -13.7626 2.84217e-014 -2.84217e-014 9.25768 -7.3732 16.1652 -26.1014 2.84217e-014 0 -19.0771 -57.1819 49.2958 -29.9599 0 1.42109e-014 -50.2975 -47.2872 -15.6169 9.91412 7.10543e-015 2.84217e-014 8.40762 -7.48402 5.57368 3.55271e-015 -41.4279 0 -3.70792 47.5944 4.36889 0 -41.0254 0 -8.11698 0.017588 5.7177 0 -6.44418 14.8712 -0 0 4.77083e-015 -9.91412 -7.10543e-015 2.84217e-014 -15.4416 -19.604 -18.0045 0 -41.4279 -2.84217e-014 5.90304 42.5106 4.52234 0 -41.0254 0 6.70291 -2.68773 -14.9817 1.42109e-014 -6.44418 14.8712 -1.76556e-031 3.18055e-015 3.18055e-015 
0 0 0 0 0 -0 -34.8117 84.6903 -176.4 -1.67672 11.3458 7.90043 -3.55271e-015 8.12958 0 -3.92214 4.76954 -7.16956 0 26.3907 0 11.006 -5.67803 -6.78552 0 26.2823 2.3893 -5.36227 5.20592 -8.45759 1.42109e-014 13.8798 -1.98282 3.05028 -1.81195 -7.77466 3.97789 23.5745 -0.27352 21.1661 -9.66973 -1.90209 13.7626 0 0 7.71541 -2.47748 -11.9024 26.1014 -2.84217e-014 0 40.2687 -51.164 -59.3306 29.9599 2.84217e-014 1.42109e-014 18.2467 -33.5832 -1.48236 -3.9517 23.5745 -0.27352 -1.45013 2.48386 5.06687 -13.7626 0 0 9.20289 -7.70119 15.9759 -26.1014 0 -2.84217e-014 -18.141 -56.1166 49.3201 -29.9599 0 7.10543e-015 -52.5985 -44.906 -18.657 9.91412 -1.42109e-014 0 8.42775 -8.14409 5.66874 3.55271e-015 -41.4279 0 -4.15251 49.4677 3.78003 0 -41.0254 0 -8.65341 -0.549401 5.85615 0 -6.44418 14.8712 3.18055e-015 0 -0 -9.91412 -7.10543e-015 2.84217e-014 -15.3211 -19.1926 -17.5001 -1.42109e-014 -41.4279 0 5.78676 41.9659 4.63241 0 -41.0254 0 6.20458 -2.05996 -15.1947 0 -6.44418 14.8712 1.76556e-031 3.18055e-015 -3.18055e-015 
0 0 0 0 0 -0 -34.9693 84.5645 -175.984 -1.62083 11.3541 7.69563 1.06581e-014 8.12958 -2.84217e-014 -3.85978 4.88956 -7.04384 0 26.3907 2.84217e-014 10.8272 -5.68614 -6.66942 0 26.2823 2.3893 -5.57473 4.92214 -8.20844 0 13.8798 -1.98282 2.69601 -1.88853 -7.53302 3.97789 23.5745 -0.27352 21.532 -10.0593 -1.21113 13.7626 0 0 7.72227 -2.80364 -12.2487 26.1014 0 2.84217e-014 41.646 -51.1977 -57.6707 29.9599 2.84217e-014 0 20.2858 -33.1437 1.5343 -3.9517 23.5745 -0.27352 -1.45466 2.53733 5.03257 -13.7626 1.42109e-014 0 9.15369 -8.28708 15.8514 -26.1014 0 0 -16.0555 -55.1087 50.6701 -29.9599 -2.84217e-014 0 -55.5288 -42.1708 -22.5367 9.91412 0 -2.84217e-014 8.43046 -8.74863 5.76773 -7.10543e-015 -41.4279 0 -4.60375 51.2495 3.64393 3.55271e-015 -41.0254 2.84217e-014 -9.06083 -1.09094 5.50136 -1.42109e-014 -6.44418 14.8712 -6.36111e-015 -3.18055e-015 1.59028e-015 -9.91412 0 -2.84217e-014 -15.1801 -18.7187 -17.0378 0 -41.4279 0 5.58573 41.3755 4.89789 0 -41.0254 -2.84217e-014 5.81917 -1.6345 -15.3364 0 -6.44418 14.8712 0 0 -0 
0 0 0 0 0 -0 -35.1256 84.421 -175.56 -1.56259 11.3807 7.43559 -3.55271e-015 8.12958 0 -3.81429 4.94461 -6.88216 -7.10543e-015 26.3907 0 10.6684 -5.63841 -6.52006 0 26.2823 2.3893 -5.88028 4.68914 -7.90737 0 13.8798 -1.98282 2.50871 -2.0561 -7.20101 3.97789 23.5745 -0.27352 21.876 -10.4076 -0.519354 13.7626 2.84217e-014 0 7.62681 -3.12603 -12.612 26.1014 0 0 43.3219 -51.1815 -55.8467 29.9599 -2.84217e-014 0 22.2429 -32.4789 4.61393 -3.9517 23.5745 -0.27352 -1.47531 2.60244 5.02083 -13.7626 0 0 9.05356 -8.74555 15.6258 -26.1014 2.84217e-014 0 -14.0319 -54.0562 52.0844 -29.9599 -2.84217e-014 0 -57.4951 -39.6193 -25.6537 9.91412 1.42109e-014 0 8.47398 -9.42613 5.95347 3.55271e-015 -41.4279 -2.84217e-014 -5.12685 53.1108 3.42659 3.55271e-015 -41.0254 0 -9.14906 -1.54313 5.24529 1.42109e-014 -6.44418 14.8712 6.36111e-015 6.36111e-015 1.59028e-015 -9.91412 0 -2.84217e-014 -14.9986 -18.2342 -16.5396 -1.42109e-014 -41.4279 0 5.31569 40.7097 5.11422 -7.10543e-015 -41.0254 -2.84217e-014 6.05272 -1.48027 -15.4876 0 -6.44418 14.8712 1.76556e-031 3.18055e-015 -3.18055e-015 
0 0 0 0 0 -0 -35.2854 84.26 -175.131 -1.49799 11.3693 7.18323 3.55271e-015 8.12958 -2.84217e-014 -3.76649 5.05074 -6.72365 0 26.3907 0 10.5271 -5.64446 -6.36944 0 26.2823 2.3893 -6.26011 4.56583 -7.55209 -1.42109e-014 13.8798 -1.98282 2.36612 -2.30538 -6.80108 3.97789 23.5745 -0.27352 22.1657 -10.7473 0.148408 13.7626 -2.84217e-014 0 7.43539 -3.20971 -13.0254 26.1014 0 -2.84217e-014 45.7006 -51.1429 -53.4767 29.9599 0 1.42109e-014 23.8726 -31.6703 7.48394 -3.9517 23.5745 -0.27352 -1.56005 2.7616 4.99948 -13.7626 0 0 8.99265 -9.45895 15.4509 -26.1014 0 0 -11.4567 -52.8897 54.1198 -29.9599 -5.68434e-014 -1.42109e-014 -59.3666 -37.0676 -28.497 9.91412 -1.42109e-014 0 8.45261 -10.0605 5.92665 0 -41.4279 0 -5.75755 54.8991 3.6124 3.55271e-015 -41.0254 0 -9.64794 -1.962 4.91153 -1.42109e-014 -6.44418 14.8712 3.18055e-015 0 -0 -9.91412 -1.42109e-014 -2.84217e-014 -14.7971 -17.6783 -16.081 0 -41.4279 0 4.99147 40.0432 5.4211 0 -41.0254 2.84217e-014 7.71359 -2.34296 -15.3196 0 -6.44418 14.8712 -1.59028e-015 -3.18055e-015 -0 
0 0 0 0 0 -0 -35.4546 84.0845 -174.692 -1.44292 11.3136 6.89932 0 8.12958 0 -3.75339 5.21343 -6.5183 7.10543e-015 26.3907 -2.84217e-014 10.4629 -5.68253 -6.16855 0 26.2823 2.3893 -6.6843 4.35477 -7.15975 0 13.8798 -1.98282 2.24318 -2.37351 -6.35251 3.97789 23.5745 -0.27352 22.4495 -11.0839 0.78709 13.7626 0 2.84217e-014 7.10091 -3.21408 -13.4639 26.1014 -2.84217e-014 2.84217e-014 48.5207 -51.0022 -50.7908 29.9599 0 -1.42109e-014 24.6293 -30.8349 9.76725 -3.9517 23.5745 -0.27352 -1.66477 2.90209 4.89168 -13.7626 1.42109e-014 0 8.86802 -9.91595 15.2839 -26.1014 0 0 -9.23431 -51.7586 55.877 -29.9599 0 7.10543e-015 -60.3348 -35.1773 -30.2605 9.91412 1.42109e-014 0 8.58669 -10.5424 6.00982 0 -41.4279 0 -6.6582 56.5842 3.64758 0 -41.0254 2.84217e-014 -10.0784 -2.5467 4.70821 0 -6.44418 14.8712 3.18055e-015 3.18055e-015 3.18055e-015 -9.91412 0 0 -14.5514 -17.0548 -15.5648 -1.42109e-014 -41.4279 0 4.6697 39.4858 6.16513 -7.10543e-015 -41.0254 -2.84217e-014 9.676 -4.00157 -15.0711 0 -6.44418 14.8712 0 0 -3.18055e-015 
